<svg width="273" height="348" viewBox="0 0 273 348" fill="none" xmlns="http://www.w3.org/2000/svg">
<g filter="url(#filter0_bd_54_11)">
<rect x="24" y="20" width="100" height="100" rx="20" fill="url(#paint0_linear_54_11)" shape-rendering="crispEdges"/>
<rect x="24.5" y="20.5" width="99" height="99" rx="19.5" stroke="url(#paint1_linear_54_11)" shape-rendering="crispEdges"/>
</g>
<g filter="url(#filter1_bd_54_11)">
<rect x="149" y="120" width="100" height="100" rx="20" fill="url(#paint2_linear_54_11)" shape-rendering="crispEdges"/>
<rect x="149.5" y="120.5" width="99" height="99" rx="19.5" stroke="url(#paint3_linear_54_11)" shape-rendering="crispEdges"/>
</g>
<g filter="url(#filter2_bd_54_11)">
<rect x="31" y="220" width="100" height="100" rx="20" fill="url(#paint4_linear_54_11)" shape-rendering="crispEdges"/>
<rect x="31.5" y="220.5" width="99" height="99" rx="19.5" stroke="url(#paint5_linear_54_11)" shape-rendering="crispEdges"/>
</g>
<path d="M69.25 106H46.8068V33.2727H70.2443C77.2992 33.2727 83.3362 34.7287 88.3551 37.6406C93.3741 40.5289 97.2211 44.6837 99.8963 50.1051C102.571 55.5028 103.909 61.9659 103.909 69.4943C103.909 77.0701 102.56 83.5923 99.8608 89.0611C97.1619 94.5062 93.232 98.6965 88.071 101.632C82.91 104.544 76.6364 106 69.25 106ZM55.6136 98.1875H68.6818C74.6951 98.1875 79.6785 97.0275 83.6321 94.7074C87.5857 92.3873 90.5331 89.0848 92.4744 84.7997C94.4157 80.5147 95.3864 75.4129 95.3864 69.4943C95.3864 63.6231 94.4276 58.5687 92.5099 54.331C90.5923 50.0696 87.7277 46.8026 83.9162 44.5298C80.1046 42.2334 75.358 41.0852 69.6761 41.0852H55.6136V98.1875Z" fill="white"/>
<path d="M229.477 133.273V206H220.955L181.324 148.898H180.614V206H171.807V133.273H180.33L220.102 190.517H220.812V133.273H229.477Z" fill="white"/>
<path d="M76.25 306H53.8068V233.273H77.2443C84.2992 233.273 90.3362 234.729 95.3551 237.641C100.374 240.529 104.221 244.684 106.896 250.105C109.571 255.503 110.909 261.966 110.909 269.494C110.909 277.07 109.56 283.592 106.861 289.061C104.162 294.506 100.232 298.696 95.071 301.632C89.91 304.544 83.6364 306 76.25 306ZM62.6136 298.188H75.6818C81.6951 298.188 86.6785 297.027 90.6321 294.707C94.5857 292.387 97.5331 289.085 99.4744 284.8C101.416 280.515 102.386 275.413 102.386 269.494C102.386 263.623 101.428 258.569 99.5099 254.331C97.5923 250.07 94.7277 246.803 90.9162 244.53C87.1046 242.233 82.358 241.085 76.6761 241.085H62.6136V298.188Z" fill="white"/>
<defs>
<filter id="filter0_bd_54_11" x="-26" y="-30" width="200" height="200" filterUnits="userSpaceOnUse" color-interpolation-filters="sRGB">
<feFlood flood-opacity="0" result="BackgroundImageFix"/>
<feGaussianBlur in="BackgroundImageFix" stdDeviation="25"/>
<feComposite in2="SourceAlpha" operator="in" result="effect1_backgroundBlur_54_11"/>
<feColorMatrix in="SourceAlpha" type="matrix" values="0 0 0 0 0 0 0 0 0 0 0 0 0 0 0 0 0 0 127 0" result="hardAlpha"/>
<feOffset dy="4"/>
<feGaussianBlur stdDeviation="12"/>
<feComposite in2="hardAlpha" operator="out"/>
<feColorMatrix type="matrix" values="0 0 0 0 0 0 0 0 0 0 0 0 0 0 0 0 0 0 0.2 0"/>
<feBlend mode="normal" in2="effect1_backgroundBlur_54_11" result="effect2_dropShadow_54_11"/>
<feBlend mode="normal" in="SourceGraphic" in2="effect2_dropShadow_54_11" result="shape"/>
</filter>
<filter id="filter1_bd_54_11" x="99" y="70" width="200" height="200" filterUnits="userSpaceOnUse" color-interpolation-filters="sRGB">
<feFlood flood-opacity="0" result="BackgroundImageFix"/>
<feGaussianBlur in="BackgroundImageFix" stdDeviation="25"/>
<feComposite in2="SourceAlpha" operator="in" result="effect1_backgroundBlur_54_11"/>
<feColorMatrix in="SourceAlpha" type="matrix" values="0 0 0 0 0 0 0 0 0 0 0 0 0 0 0 0 0 0 127 0" result="hardAlpha"/>
<feOffset dy="4"/>
<feGaussianBlur stdDeviation="12"/>
<feComposite in2="hardAlpha" operator="out"/>
<feColorMatrix type="matrix" values="0 0 0 0 0 0 0 0 0 0 0 0 0 0 0 0 0 0 0.2 0"/>
<feBlend mode="normal" in2="effect1_backgroundBlur_54_11" result="effect2_dropShadow_54_11"/>
<feBlend mode="normal" in="SourceGraphic" in2="effect2_dropShadow_54_11" result="shape"/>
</filter>
<filter id="filter2_bd_54_11" x="-19" y="170" width="200" height="200" filterUnits="userSpaceOnUse" color-interpolation-filters="sRGB">
<feFlood flood-opacity="0" result="BackgroundImageFix"/>
<feGaussianBlur in="BackgroundImageFix" stdDeviation="25"/>
<feComposite in2="SourceAlpha" operator="in" result="effect1_backgroundBlur_54_11"/>
<feColorMatrix in="SourceAlpha" type="matrix" values="0 0 0 0 0 0 0 0 0 0 0 0 0 0 0 0 0 0 127 0" result="hardAlpha"/>
<feOffset dy="4"/>
<feGaussianBlur stdDeviation="12"/>
<feComposite in2="hardAlpha" operator="out"/>
<feColorMatrix type="matrix" values="0 0 0 0 0 0 0 0 0 0 0 0 0 0 0 0 0 0 0.2 0"/>
<feBlend mode="normal" in2="effect1_backgroundBlur_54_11" result="effect2_dropShadow_54_11"/>
<feBlend mode="normal" in="SourceGraphic" in2="effect2_dropShadow_54_11" result="shape"/>
</filter>
<linearGradient id="paint0_linear_54_11" x1="74" y1="20" x2="74" y2="120" gradientUnits="userSpaceOnUse">
<stop stop-color="#FF0000" stop-opacity="0.4"/>
<stop offset="1" stop-color="#990000" stop-opacity="0.1"/>
</linearGradient>
<linearGradient id="paint1_linear_54_11" x1="6" y1="20" x2="115.5" y2="125" gradientUnits="userSpaceOnUse">
<stop stop-opacity="0.4"/>
<stop offset="1" stop-color="white" stop-opacity="0.1"/>
</linearGradient>
<linearGradient id="paint2_linear_54_11" x1="168.5" y1="193" x2="255.5" y2="220" gradientUnits="userSpaceOnUse">
<stop stop-color="#0009FF" stop-opacity="0.4"/>
<stop offset="1" stop-color="#2B0099" stop-opacity="0.1"/>
</linearGradient>
<linearGradient id="paint3_linear_54_11" x1="131" y1="120" x2="240.5" y2="225" gradientUnits="userSpaceOnUse">
<stop stop-opacity="0.4"/>
<stop offset="1" stop-color="white" stop-opacity="0.1"/>
</linearGradient>
<linearGradient id="paint4_linear_54_11" x1="120" y1="314" x2="49" y2="237" gradientUnits="userSpaceOnUse">
<stop stop-color="#62FF00" stop-opacity="0.4"/>
<stop offset="1" stop-color="#2B9900" stop-opacity="0.1"/>
</linearGradient>
<linearGradient id="paint5_linear_54_11" x1="13" y1="220" x2="122.5" y2="325" gradientUnits="userSpaceOnUse">
<stop stop-opacity="0.4"/>
<stop offset="1" stop-color="white" stop-opacity="0.1"/>
</linearGradient>
</defs>
</svg>
